<mxfile host="app.diagrams.net" modified="2023-11-22T04:11:24.608Z" agent="Mozilla/5.0 (Windows NT 10.0; Win64; x64) AppleWebKit/537.36 (KHTML, like Gecko) Chrome/119.0.0.0 Safari/537.36" etag="9ZZjFKv3-Z1-4mYB-jb_" version="22.1.3" type="google" pages="2">
  <diagram id="-yT7sFHrKySfBrnCeoKA" name="Use case">
    <mxGraphModel grid="0" page="0" gridSize="10" guides="1" tooltips="1" connect="1" arrows="1" fold="1" pageScale="1" pageWidth="1100" pageHeight="850" math="0" shadow="0">
      <root>
        <mxCell id="0" />
        <mxCell id="1" parent="0" />
        <mxCell id="5S12iGxORsTtO9OOCeru-2" value="Streamline Food Order Process&amp;nbsp;" style="shape=rect;html=1;verticalAlign=top;fontStyle=1;whiteSpace=wrap;align=center;" vertex="1" parent="1">
          <mxGeometry x="-157" y="-126" width="1168" height="1630" as="geometry" />
        </mxCell>
        <mxCell id="VnBPEFk2TrLwCFHHZM61-1" style="rounded=0;orthogonalLoop=1;jettySize=auto;html=1;exitX=0.5;exitY=0.5;exitDx=0;exitDy=0;exitPerimeter=0;endArrow=none;endFill=0;" edge="1" parent="1" source="5S12iGxORsTtO9OOCeru-4" target="b2FgLGVozto4GYNn-_74-18">
          <mxGeometry relative="1" as="geometry" />
        </mxCell>
        <mxCell id="VnBPEFk2TrLwCFHHZM61-2" style="edgeStyle=none;shape=connector;rounded=0;orthogonalLoop=1;jettySize=auto;html=1;exitX=0.5;exitY=0.5;exitDx=0;exitDy=0;exitPerimeter=0;labelBackgroundColor=default;strokeColor=default;align=center;verticalAlign=middle;fontFamily=Helvetica;fontSize=11;fontColor=default;endArrow=none;endFill=0;" edge="1" parent="1" source="5S12iGxORsTtO9OOCeru-4" target="b2FgLGVozto4GYNn-_74-17">
          <mxGeometry relative="1" as="geometry" />
        </mxCell>
        <mxCell id="VnBPEFk2TrLwCFHHZM61-5" style="edgeStyle=none;shape=connector;rounded=0;orthogonalLoop=1;jettySize=auto;html=1;exitX=0.5;exitY=0.5;exitDx=0;exitDy=0;exitPerimeter=0;entryX=0;entryY=0;entryDx=0;entryDy=0;labelBackgroundColor=default;strokeColor=default;align=center;verticalAlign=middle;fontFamily=Helvetica;fontSize=11;fontColor=default;endArrow=none;endFill=0;" edge="1" parent="1" source="5S12iGxORsTtO9OOCeru-4" target="jC4FGWaPV8YQ0MBhtPWY-45">
          <mxGeometry relative="1" as="geometry" />
        </mxCell>
        <mxCell id="nTkL5l2y081iicoMKGyD-2" style="edgeStyle=none;shape=connector;rounded=0;orthogonalLoop=1;jettySize=auto;html=1;exitX=0.5;exitY=0.5;exitDx=0;exitDy=0;exitPerimeter=0;labelBackgroundColor=default;strokeColor=default;align=center;verticalAlign=middle;fontFamily=Helvetica;fontSize=11;fontColor=default;endArrow=none;endFill=0;" edge="1" parent="1" source="5S12iGxORsTtO9OOCeru-4" target="b2FgLGVozto4GYNn-_74-16">
          <mxGeometry relative="1" as="geometry" />
        </mxCell>
        <mxCell id="nTkL5l2y081iicoMKGyD-4" style="edgeStyle=none;shape=connector;rounded=0;orthogonalLoop=1;jettySize=auto;html=1;exitX=0.5;exitY=0.5;exitDx=0;exitDy=0;exitPerimeter=0;labelBackgroundColor=default;strokeColor=default;align=center;verticalAlign=middle;fontFamily=Helvetica;fontSize=11;fontColor=default;endArrow=none;endFill=0;" edge="1" parent="1" source="5S12iGxORsTtO9OOCeru-4" target="nTkL5l2y081iicoMKGyD-3">
          <mxGeometry relative="1" as="geometry" />
        </mxCell>
        <mxCell id="cJ1G_FCyPd07XdhZHyp8-7" style="edgeStyle=none;shape=connector;rounded=0;orthogonalLoop=1;jettySize=auto;html=1;exitX=0.5;exitY=0.5;exitDx=0;exitDy=0;exitPerimeter=0;entryX=0;entryY=0.5;entryDx=0;entryDy=0;labelBackgroundColor=default;strokeColor=default;align=center;verticalAlign=middle;fontFamily=Helvetica;fontSize=11;fontColor=default;endArrow=none;endFill=0;" edge="1" parent="1" source="5S12iGxORsTtO9OOCeru-4" target="cJ1G_FCyPd07XdhZHyp8-6">
          <mxGeometry relative="1" as="geometry" />
        </mxCell>
        <mxCell id="5S12iGxORsTtO9OOCeru-4" value="Vendor&lt;br&gt;" style="shape=umlActor;html=1;verticalLabelPosition=bottom;verticalAlign=top;align=center;" vertex="1" parent="1">
          <mxGeometry x="-244" y="-36" width="30" height="60" as="geometry" />
        </mxCell>
        <mxCell id="jC4FGWaPV8YQ0MBhtPWY-9" style="rounded=0;orthogonalLoop=1;jettySize=auto;html=1;exitX=0.5;exitY=0.5;exitDx=0;exitDy=0;exitPerimeter=0;endArrow=none;endFill=0;strokeColor=default;" edge="1" parent="1" source="jC4FGWaPV8YQ0MBhtPWY-1" target="jC4FGWaPV8YQ0MBhtPWY-8">
          <mxGeometry relative="1" as="geometry" />
        </mxCell>
        <mxCell id="jC4FGWaPV8YQ0MBhtPWY-30" style="edgeStyle=none;shape=connector;rounded=0;orthogonalLoop=1;jettySize=auto;html=1;exitX=0.5;exitY=0.5;exitDx=0;exitDy=0;exitPerimeter=0;entryX=0;entryY=0.5;entryDx=0;entryDy=0;labelBackgroundColor=default;strokeColor=default;align=center;verticalAlign=middle;fontFamily=Helvetica;fontSize=11;fontColor=default;endArrow=none;endFill=0;" edge="1" parent="1" source="jC4FGWaPV8YQ0MBhtPWY-1" target="jC4FGWaPV8YQ0MBhtPWY-26">
          <mxGeometry relative="1" as="geometry" />
        </mxCell>
        <mxCell id="jC4FGWaPV8YQ0MBhtPWY-31" style="edgeStyle=none;shape=connector;rounded=0;orthogonalLoop=1;jettySize=auto;html=1;exitX=0.5;exitY=0.5;exitDx=0;exitDy=0;exitPerimeter=0;labelBackgroundColor=default;strokeColor=default;align=center;verticalAlign=middle;fontFamily=Helvetica;fontSize=11;fontColor=default;endArrow=none;endFill=0;" edge="1" parent="1" source="jC4FGWaPV8YQ0MBhtPWY-1" target="jC4FGWaPV8YQ0MBhtPWY-32">
          <mxGeometry relative="1" as="geometry">
            <mxPoint x="-49.79998779296875" y="892.3999938964844" as="targetPoint" />
          </mxGeometry>
        </mxCell>
        <mxCell id="jC4FGWaPV8YQ0MBhtPWY-48" style="edgeStyle=none;shape=connector;rounded=0;orthogonalLoop=1;jettySize=auto;html=1;exitX=0.5;exitY=0.5;exitDx=0;exitDy=0;exitPerimeter=0;labelBackgroundColor=default;strokeColor=default;align=center;verticalAlign=middle;fontFamily=Helvetica;fontSize=11;fontColor=default;endArrow=none;endFill=0;" edge="1" parent="1" source="jC4FGWaPV8YQ0MBhtPWY-1" target="jC4FGWaPV8YQ0MBhtPWY-47">
          <mxGeometry relative="1" as="geometry" />
        </mxCell>
        <mxCell id="nTkL5l2y081iicoMKGyD-6" style="edgeStyle=none;shape=connector;rounded=0;orthogonalLoop=1;jettySize=auto;html=1;exitX=0.5;exitY=0.5;exitDx=0;exitDy=0;exitPerimeter=0;labelBackgroundColor=default;strokeColor=default;align=center;verticalAlign=middle;fontFamily=Helvetica;fontSize=11;fontColor=default;endArrow=none;endFill=0;" edge="1" parent="1" source="jC4FGWaPV8YQ0MBhtPWY-1" target="nTkL5l2y081iicoMKGyD-5">
          <mxGeometry relative="1" as="geometry" />
        </mxCell>
        <mxCell id="jC4FGWaPV8YQ0MBhtPWY-1" value="Customer&lt;br&gt;" style="shape=umlActor;html=1;verticalLabelPosition=bottom;verticalAlign=top;align=center;" vertex="1" parent="1">
          <mxGeometry x="-221" y="751" width="30" height="60" as="geometry" />
        </mxCell>
        <mxCell id="cJ1G_FCyPd07XdhZHyp8-1" style="rounded=0;orthogonalLoop=1;jettySize=auto;html=1;exitX=0.5;exitY=0.5;exitDx=0;exitDy=0;exitPerimeter=0;endArrow=none;endFill=0;" edge="1" parent="1" source="jC4FGWaPV8YQ0MBhtPWY-4" target="b2FgLGVozto4GYNn-_74-15">
          <mxGeometry relative="1" as="geometry" />
        </mxCell>
        <mxCell id="cJ1G_FCyPd07XdhZHyp8-5" style="edgeStyle=none;shape=connector;rounded=0;orthogonalLoop=1;jettySize=auto;html=1;exitX=0.5;exitY=0.5;exitDx=0;exitDy=0;exitPerimeter=0;labelBackgroundColor=default;strokeColor=default;align=center;verticalAlign=middle;fontFamily=Helvetica;fontSize=11;fontColor=default;endArrow=none;endFill=0;" edge="1" parent="1" source="jC4FGWaPV8YQ0MBhtPWY-4" target="cJ1G_FCyPd07XdhZHyp8-2">
          <mxGeometry relative="1" as="geometry" />
        </mxCell>
        <mxCell id="jC4FGWaPV8YQ0MBhtPWY-4" value="Administrator&lt;br&gt;" style="shape=umlActor;html=1;verticalLabelPosition=bottom;verticalAlign=top;align=center;" vertex="1" parent="1">
          <mxGeometry x="1079" y="305" width="30" height="60" as="geometry" />
        </mxCell>
        <mxCell id="vGA-yopVyjrzuShyxS-l-4" style="edgeStyle=none;shape=connector;rounded=0;orthogonalLoop=1;jettySize=auto;html=1;exitX=0.5;exitY=0.5;exitDx=0;exitDy=0;exitPerimeter=0;entryX=0;entryY=0.5;entryDx=0;entryDy=0;labelBackgroundColor=default;strokeColor=default;align=center;verticalAlign=middle;fontFamily=Helvetica;fontSize=11;fontColor=default;endArrow=none;endFill=0;" edge="1" parent="1" source="jC4FGWaPV8YQ0MBhtPWY-5" target="vGA-yopVyjrzuShyxS-l-3">
          <mxGeometry relative="1" as="geometry" />
        </mxCell>
        <mxCell id="oQsA_e4mUuWnnfKAvHGU-3" style="rounded=0;orthogonalLoop=1;jettySize=auto;html=1;exitX=0.5;exitY=0.5;exitDx=0;exitDy=0;exitPerimeter=0;endArrow=none;endFill=0;" edge="1" parent="1" source="jC4FGWaPV8YQ0MBhtPWY-5" target="oQsA_e4mUuWnnfKAvHGU-2">
          <mxGeometry relative="1" as="geometry" />
        </mxCell>
        <mxCell id="oQsA_e4mUuWnnfKAvHGU-6" style="edgeStyle=none;shape=connector;rounded=0;orthogonalLoop=1;jettySize=auto;html=1;exitX=0.5;exitY=0.5;exitDx=0;exitDy=0;exitPerimeter=0;labelBackgroundColor=default;strokeColor=default;align=center;verticalAlign=middle;fontFamily=Helvetica;fontSize=11;fontColor=default;endArrow=none;endFill=0;" edge="1" parent="1" source="jC4FGWaPV8YQ0MBhtPWY-5" target="oQsA_e4mUuWnnfKAvHGU-5">
          <mxGeometry relative="1" as="geometry" />
        </mxCell>
        <mxCell id="oQsA_e4mUuWnnfKAvHGU-9" style="edgeStyle=none;shape=connector;rounded=0;orthogonalLoop=1;jettySize=auto;html=1;exitX=0.5;exitY=0.5;exitDx=0;exitDy=0;exitPerimeter=0;labelBackgroundColor=default;strokeColor=default;align=center;verticalAlign=middle;fontFamily=Helvetica;fontSize=11;fontColor=default;endArrow=none;endFill=0;" edge="1" parent="1" source="jC4FGWaPV8YQ0MBhtPWY-5" target="oQsA_e4mUuWnnfKAvHGU-8">
          <mxGeometry relative="1" as="geometry" />
        </mxCell>
        <mxCell id="oQsA_e4mUuWnnfKAvHGU-11" style="edgeStyle=none;shape=connector;rounded=0;orthogonalLoop=1;jettySize=auto;html=1;exitX=0.5;exitY=0.5;exitDx=0;exitDy=0;exitPerimeter=0;labelBackgroundColor=default;strokeColor=default;align=center;verticalAlign=middle;fontFamily=Helvetica;fontSize=11;fontColor=default;endArrow=none;endFill=0;" edge="1" parent="1" source="jC4FGWaPV8YQ0MBhtPWY-5" target="oQsA_e4mUuWnnfKAvHGU-10">
          <mxGeometry relative="1" as="geometry" />
        </mxCell>
        <mxCell id="jC4FGWaPV8YQ0MBhtPWY-5" value="Delivery Runner&lt;br&gt;" style="shape=umlActor;html=1;verticalLabelPosition=bottom;verticalAlign=top;align=center;" vertex="1" parent="1">
          <mxGeometry x="-244" y="1338" width="30" height="60" as="geometry" />
        </mxCell>
        <mxCell id="jC4FGWaPV8YQ0MBhtPWY-8" value="view Menu" style="ellipse;whiteSpace=wrap;html=1;" vertex="1" parent="1">
          <mxGeometry x="-136" y="435" width="140" height="70" as="geometry" />
        </mxCell>
        <mxCell id="jC4FGWaPV8YQ0MBhtPWY-26" value="Place and cancel order&lt;br&gt;" style="ellipse;whiteSpace=wrap;html=1;" vertex="1" parent="1">
          <mxGeometry x="-86" y="601" width="140" height="70" as="geometry" />
        </mxCell>
        <mxCell id="jC4FGWaPV8YQ0MBhtPWY-28" value="Provide a review for each order" style="ellipse;whiteSpace=wrap;html=1;" vertex="1" parent="1">
          <mxGeometry x="122" y="428" width="140" height="70" as="geometry" />
        </mxCell>
        <mxCell id="jC4FGWaPV8YQ0MBhtPWY-32" value="Reorder Using Order Histroty" style="ellipse;whiteSpace=wrap;html=1;" vertex="1" parent="1">
          <mxGeometry x="147" y="993" width="140" height="70" as="geometry" />
        </mxCell>
        <mxCell id="jC4FGWaPV8YQ0MBhtPWY-36" value="&amp;lt;&amp;lt;include&amp;gt;&amp;gt;" style="html=1;verticalAlign=bottom;labelBackgroundColor=none;endArrow=open;endFill=0;dashed=1;rounded=0;strokeColor=default;align=center;fontFamily=Helvetica;fontSize=11;fontColor=default;shape=connector;" edge="1" parent="1" source="jC4FGWaPV8YQ0MBhtPWY-26" target="jC4FGWaPV8YQ0MBhtPWY-37">
          <mxGeometry width="160" relative="1" as="geometry">
            <mxPoint x="322" y="471" as="sourcePoint" />
            <mxPoint x="162" y="471" as="targetPoint" />
          </mxGeometry>
        </mxCell>
        <mxCell id="jC4FGWaPV8YQ0MBhtPWY-37" value="make payment" style="ellipse;whiteSpace=wrap;html=1;" vertex="1" parent="1">
          <mxGeometry x="165" y="537" width="140" height="70" as="geometry" />
        </mxCell>
        <mxCell id="jC4FGWaPV8YQ0MBhtPWY-40" value="&amp;lt;&amp;lt;extend&amp;gt;&amp;gt;" style="html=1;verticalAlign=bottom;labelBackgroundColor=none;endArrow=open;endFill=0;dashed=1;rounded=0;strokeColor=default;align=center;fontFamily=Helvetica;fontSize=11;fontColor=default;shape=connector;" edge="1" parent="1" source="jC4FGWaPV8YQ0MBhtPWY-41" target="jC4FGWaPV8YQ0MBhtPWY-8">
          <mxGeometry width="160" relative="1" as="geometry">
            <mxPoint x="321.55" y="776.52" as="sourcePoint" />
            <mxPoint x="179.996239976528" y="784.0006963657597" as="targetPoint" />
          </mxGeometry>
        </mxCell>
        <mxCell id="jC4FGWaPV8YQ0MBhtPWY-41" value="Read Customer Review" style="ellipse;whiteSpace=wrap;html=1;" vertex="1" parent="1">
          <mxGeometry x="-47" y="331" width="140" height="70" as="geometry" />
        </mxCell>
        <mxCell id="jC4FGWaPV8YQ0MBhtPWY-45" value="Check order history" style="ellipse;whiteSpace=wrap;html=1;" vertex="1" parent="1">
          <mxGeometry x="523" y="671" width="140" height="70" as="geometry" />
        </mxCell>
        <mxCell id="jC4FGWaPV8YQ0MBhtPWY-47" value="reload credit" style="ellipse;whiteSpace=wrap;html=1;" vertex="1" parent="1">
          <mxGeometry x="-94" y="983" width="140" height="70" as="geometry" />
        </mxCell>
        <mxCell id="jC4FGWaPV8YQ0MBhtPWY-50" value="&amp;lt;&amp;lt;extend&amp;gt;&amp;gt;" style="html=1;verticalAlign=bottom;labelBackgroundColor=none;endArrow=open;endFill=0;dashed=1;rounded=0;strokeColor=default;align=center;fontFamily=Helvetica;fontSize=11;fontColor=default;shape=connector;entryX=0.582;entryY=0.003;entryDx=0;entryDy=0;entryPerimeter=0;" edge="1" parent="1" source="jC4FGWaPV8YQ0MBhtPWY-51" target="jC4FGWaPV8YQ0MBhtPWY-32">
          <mxGeometry width="160" relative="1" as="geometry">
            <mxPoint x="348.34000000000003" y="674.94" as="sourcePoint" />
            <mxPoint x="179.0027307581109" y="644.9977361697674" as="targetPoint" />
          </mxGeometry>
        </mxCell>
        <mxCell id="jC4FGWaPV8YQ0MBhtPWY-51" value="Check order status&amp;nbsp;" style="ellipse;whiteSpace=wrap;html=1;" vertex="1" parent="1">
          <mxGeometry x="305" y="719" width="140" height="70" as="geometry" />
        </mxCell>
        <mxCell id="b2FgLGVozto4GYNn-_74-1" value="&amp;lt;&amp;lt;extend&amp;gt;&amp;gt;" style="html=1;verticalAlign=bottom;labelBackgroundColor=none;endArrow=open;endFill=0;dashed=1;rounded=0;strokeColor=default;align=center;fontFamily=Helvetica;fontSize=11;fontColor=default;shape=connector;entryX=1;entryY=0.5;entryDx=0;entryDy=0;" edge="1" parent="1" source="jC4FGWaPV8YQ0MBhtPWY-45" target="jC4FGWaPV8YQ0MBhtPWY-26">
          <mxGeometry width="160" relative="1" as="geometry">
            <mxPoint x="275" y="480" as="sourcePoint" />
            <mxPoint x="176" y="538" as="targetPoint" />
          </mxGeometry>
        </mxCell>
        <mxCell id="b2FgLGVozto4GYNn-_74-2" style="edgeStyle=none;shape=connector;rounded=0;orthogonalLoop=1;jettySize=auto;html=1;entryX=0;entryY=0.5;entryDx=0;entryDy=0;labelBackgroundColor=default;strokeColor=default;align=center;verticalAlign=middle;fontFamily=Helvetica;fontSize=11;fontColor=default;endArrow=none;endFill=0;" edge="1" parent="1" source="jC4FGWaPV8YQ0MBhtPWY-45" target="jC4FGWaPV8YQ0MBhtPWY-45">
          <mxGeometry relative="1" as="geometry" />
        </mxCell>
        <mxCell id="b2FgLGVozto4GYNn-_74-3" value="&amp;lt;&amp;lt;include&amp;gt;&amp;gt;" style="html=1;verticalAlign=bottom;labelBackgroundColor=none;endArrow=open;endFill=0;dashed=1;rounded=0;strokeColor=default;align=center;fontFamily=Helvetica;fontSize=11;fontColor=default;shape=connector;" edge="1" parent="1" source="jC4FGWaPV8YQ0MBhtPWY-32" target="jC4FGWaPV8YQ0MBhtPWY-45">
          <mxGeometry width="160" relative="1" as="geometry">
            <mxPoint x="259" y="401" as="sourcePoint" />
            <mxPoint x="99" y="401" as="targetPoint" />
          </mxGeometry>
        </mxCell>
        <mxCell id="b2FgLGVozto4GYNn-_74-5" value="&amp;lt;&amp;lt;extend&amp;gt;&amp;gt;" style="html=1;verticalAlign=bottom;labelBackgroundColor=none;endArrow=open;endFill=0;dashed=1;rounded=0;strokeColor=default;align=center;fontFamily=Helvetica;fontSize=11;fontColor=default;shape=connector;entryX=0.62;entryY=0.003;entryDx=0;entryDy=0;entryPerimeter=0;" edge="1" parent="1" source="jC4FGWaPV8YQ0MBhtPWY-28" target="jC4FGWaPV8YQ0MBhtPWY-26">
          <mxGeometry width="160" relative="1" as="geometry">
            <mxPoint x="93" y="519" as="sourcePoint" />
            <mxPoint x="-125" y="569" as="targetPoint" />
          </mxGeometry>
        </mxCell>
        <mxCell id="b2FgLGVozto4GYNn-_74-6" value="&amp;lt;&amp;lt;extend&amp;gt;&amp;gt;" style="html=1;verticalAlign=bottom;labelBackgroundColor=none;endArrow=open;endFill=0;dashed=1;rounded=0;strokeColor=default;align=center;fontFamily=Helvetica;fontSize=11;fontColor=default;shape=connector;entryX=0.795;entryY=0.902;entryDx=0;entryDy=0;entryPerimeter=0;" edge="1" parent="1" source="jC4FGWaPV8YQ0MBhtPWY-51" target="jC4FGWaPV8YQ0MBhtPWY-26">
          <mxGeometry width="160" relative="1" as="geometry">
            <mxPoint x="231" y="621" as="sourcePoint" />
            <mxPoint x="117" y="763" as="targetPoint" />
          </mxGeometry>
        </mxCell>
        <mxCell id="b2FgLGVozto4GYNn-_74-15" value="Login" style="ellipse;whiteSpace=wrap;html=1;" vertex="1" parent="1">
          <mxGeometry x="740" y="261" width="140" height="70" as="geometry" />
        </mxCell>
        <mxCell id="b2FgLGVozto4GYNn-_74-16" value="Update order status" style="ellipse;whiteSpace=wrap;html=1;" vertex="1" parent="1">
          <mxGeometry x="84" y="154" width="140" height="70" as="geometry" />
        </mxCell>
        <mxCell id="b2FgLGVozto4GYNn-_74-17" value="Accept and cancel order" style="ellipse;whiteSpace=wrap;html=1;" vertex="1" parent="1">
          <mxGeometry x="49" y="53" width="140" height="70" as="geometry" />
        </mxCell>
        <mxCell id="b2FgLGVozto4GYNn-_74-18" value="Manage&amp;nbsp; the item of&amp;nbsp; Menu" style="ellipse;whiteSpace=wrap;html=1;" vertex="1" parent="1">
          <mxGeometry x="-129" y="203" width="140" height="70" as="geometry" />
        </mxCell>
        <mxCell id="nTkL5l2y081iicoMKGyD-1" value="&amp;lt;&amp;lt;extend&amp;gt;&amp;gt;" style="html=1;verticalAlign=bottom;labelBackgroundColor=none;endArrow=open;endFill=0;dashed=1;rounded=0;strokeColor=default;align=center;fontFamily=Helvetica;fontSize=11;fontColor=default;shape=connector;entryX=0.606;entryY=1.026;entryDx=0;entryDy=0;entryPerimeter=0;" edge="1" parent="1" source="jC4FGWaPV8YQ0MBhtPWY-41" target="b2FgLGVozto4GYNn-_74-18">
          <mxGeometry width="160" relative="1" as="geometry">
            <mxPoint x="-79" y="317" as="sourcePoint" />
            <mxPoint x="-122" y="372" as="targetPoint" />
          </mxGeometry>
        </mxCell>
        <mxCell id="nTkL5l2y081iicoMKGyD-3" value="Login" style="ellipse;whiteSpace=wrap;html=1;" vertex="1" parent="1">
          <mxGeometry x="-25" y="-28" width="140" height="70" as="geometry" />
        </mxCell>
        <mxCell id="nTkL5l2y081iicoMKGyD-5" value="Login" style="ellipse;whiteSpace=wrap;html=1;" vertex="1" parent="1">
          <mxGeometry x="-45" y="758" width="140" height="70" as="geometry" />
        </mxCell>
        <mxCell id="cJ1G_FCyPd07XdhZHyp8-2" value="Manage user&amp;nbsp;" style="ellipse;whiteSpace=wrap;html=1;" vertex="1" parent="1">
          <mxGeometry x="743" y="388" width="140" height="70" as="geometry" />
        </mxCell>
        <mxCell id="cJ1G_FCyPd07XdhZHyp8-3" value="Create/Read/&lt;br&gt;Update/Delete user&lt;br&gt;" style="ellipse;whiteSpace=wrap;html=1;" vertex="1" parent="1">
          <mxGeometry x="557" y="300" width="140" height="70" as="geometry" />
        </mxCell>
        <mxCell id="cJ1G_FCyPd07XdhZHyp8-4" value="&amp;lt;&amp;lt;include&amp;gt;&amp;gt;" style="html=1;verticalAlign=bottom;labelBackgroundColor=none;endArrow=open;endFill=0;dashed=1;rounded=0;strokeColor=default;align=center;fontFamily=Helvetica;fontSize=11;fontColor=default;shape=connector;" edge="1" parent="1" source="cJ1G_FCyPd07XdhZHyp8-3" target="cJ1G_FCyPd07XdhZHyp8-2">
          <mxGeometry width="160" relative="1" as="geometry">
            <mxPoint x="701" y="370" as="sourcePoint" />
            <mxPoint x="826" y="338" as="targetPoint" />
          </mxGeometry>
        </mxCell>
        <mxCell id="cJ1G_FCyPd07XdhZHyp8-6" value="Generate Revenue Dashboard" style="ellipse;whiteSpace=wrap;html=1;" vertex="1" parent="1">
          <mxGeometry x="135" y="238" width="140" height="70" as="geometry" />
        </mxCell>
        <mxCell id="vGA-yopVyjrzuShyxS-l-1" value="Topup Customer Credit" style="ellipse;whiteSpace=wrap;html=1;" vertex="1" parent="1">
          <mxGeometry x="740" y="487" width="140" height="70" as="geometry" />
        </mxCell>
        <mxCell id="vGA-yopVyjrzuShyxS-l-2" style="rounded=0;orthogonalLoop=1;jettySize=auto;html=1;exitX=0.5;exitY=0.5;exitDx=0;exitDy=0;exitPerimeter=0;entryX=0.971;entryY=0.286;entryDx=0;entryDy=0;entryPerimeter=0;endArrow=none;endFill=0;" edge="1" parent="1" source="jC4FGWaPV8YQ0MBhtPWY-4" target="vGA-yopVyjrzuShyxS-l-1">
          <mxGeometry relative="1" as="geometry" />
        </mxCell>
        <mxCell id="vGA-yopVyjrzuShyxS-l-3" value="Login" style="ellipse;whiteSpace=wrap;html=1;" vertex="1" parent="1">
          <mxGeometry x="224" y="1081" width="140" height="70" as="geometry" />
        </mxCell>
        <mxCell id="oQsA_e4mUuWnnfKAvHGU-2" value="view DashBoard" style="ellipse;whiteSpace=wrap;html=1;" vertex="1" parent="1">
          <mxGeometry x="203" y="1305" width="140" height="70" as="geometry" />
        </mxCell>
        <mxCell id="oQsA_e4mUuWnnfKAvHGU-5" value="Read Customer Review" style="ellipse;whiteSpace=wrap;html=1;" vertex="1" parent="1">
          <mxGeometry x="71" y="1357" width="140" height="70" as="geometry" />
        </mxCell>
        <mxCell id="oQsA_e4mUuWnnfKAvHGU-8" value="Accept and Decline task" style="ellipse;whiteSpace=wrap;html=1;" vertex="1" parent="1">
          <mxGeometry x="-91" y="1107" width="140" height="70" as="geometry" />
        </mxCell>
        <mxCell id="oQsA_e4mUuWnnfKAvHGU-10" value="Check task history" style="ellipse;whiteSpace=wrap;html=1;" vertex="1" parent="1">
          <mxGeometry x="25" y="1235" width="140" height="70" as="geometry" />
        </mxCell>
        <mxCell id="oQsA_e4mUuWnnfKAvHGU-12" value="" style="ellipse;whiteSpace=wrap;html=1;" vertex="1" parent="1">
          <mxGeometry x="-54" y="1417" width="140" height="70" as="geometry" />
        </mxCell>
      </root>
    </mxGraphModel>
  </diagram>
  <diagram id="FqV7rLL-AsvrTR5SVu-v" name="class diagram">
    <mxGraphModel grid="0" page="0" gridSize="10" guides="1" tooltips="1" connect="1" arrows="1" fold="1" pageScale="1" pageWidth="1100" pageHeight="850" math="0" shadow="0">
      <root>
        <mxCell id="0" />
        <mxCell id="1" parent="0" />
        <mxCell id="iQT0GIpQPG-4RbalyCgK-31" style="edgeStyle=orthogonalEdgeStyle;html=1;labelBackgroundColor=none;startFill=0;startSize=8;endArrow=open;endFill=0;endSize=16;fontFamily=Verdana;fontSize=12;dashed=1;rounded=0;" edge="1" parent="1" source="iQT0GIpQPG-4RbalyCgK-33" target="iQT0GIpQPG-4RbalyCgK-76">
          <mxGeometry relative="1" as="geometry">
            <Array as="points">
              <mxPoint x="120" y="317" />
              <mxPoint x="360" y="317" />
            </Array>
          </mxGeometry>
        </mxCell>
        <mxCell id="iQT0GIpQPG-4RbalyCgK-32" style="edgeStyle=orthogonalEdgeStyle;html=1;labelBackgroundColor=none;startFill=0;startSize=8;endArrow=diamondThin;endFill=0;endSize=16;fontFamily=Verdana;fontSize=12;rounded=0;" edge="1" parent="1" source="iQT0GIpQPG-4RbalyCgK-33" target="iQT0GIpQPG-4RbalyCgK-76">
          <mxGeometry relative="1" as="geometry">
            <Array as="points">
              <mxPoint x="70" y="367" />
              <mxPoint x="320" y="367" />
            </Array>
          </mxGeometry>
        </mxCell>
        <mxCell id="iQT0GIpQPG-4RbalyCgK-33" value="Classname" style="swimlane;html=1;fontStyle=1;align=center;verticalAlign=top;childLayout=stackLayout;horizontal=1;startSize=26;horizontalStack=0;resizeParent=1;resizeLast=0;collapsible=1;marginBottom=0;swimlaneFillColor=#ffffff;rounded=0;shadow=0;comic=0;labelBackgroundColor=none;strokeWidth=1;fillColor=none;fontFamily=Verdana;fontSize=12" vertex="1" parent="1">
          <mxGeometry x="20" y="20" width="160" height="227" as="geometry" />
        </mxCell>
        <mxCell id="iQT0GIpQPG-4RbalyCgK-34" value="+ field: type" style="text;html=1;strokeColor=none;fillColor=none;align=left;verticalAlign=top;spacingLeft=4;spacingRight=4;whiteSpace=wrap;overflow=hidden;rotatable=0;points=[[0,0.5],[1,0.5]];portConstraint=eastwest;" vertex="1" parent="iQT0GIpQPG-4RbalyCgK-33">
          <mxGeometry y="26" width="160" height="26" as="geometry" />
        </mxCell>
        <mxCell id="iQT0GIpQPG-4RbalyCgK-35" value="+ field: type" style="text;html=1;strokeColor=none;fillColor=none;align=left;verticalAlign=top;spacingLeft=4;spacingRight=4;whiteSpace=wrap;overflow=hidden;rotatable=0;points=[[0,0.5],[1,0.5]];portConstraint=eastwest;" vertex="1" parent="iQT0GIpQPG-4RbalyCgK-33">
          <mxGeometry y="52" width="160" height="26" as="geometry" />
        </mxCell>
        <mxCell id="iQT0GIpQPG-4RbalyCgK-36" value="+ field: type" style="text;html=1;strokeColor=none;fillColor=none;align=left;verticalAlign=top;spacingLeft=4;spacingRight=4;whiteSpace=wrap;overflow=hidden;rotatable=0;points=[[0,0.5],[1,0.5]];portConstraint=eastwest;" vertex="1" parent="iQT0GIpQPG-4RbalyCgK-33">
          <mxGeometry y="78" width="160" height="26" as="geometry" />
        </mxCell>
        <mxCell id="iQT0GIpQPG-4RbalyCgK-37" value="+ field: type" style="text;html=1;strokeColor=none;fillColor=none;align=left;verticalAlign=top;spacingLeft=4;spacingRight=4;whiteSpace=wrap;overflow=hidden;rotatable=0;points=[[0,0.5],[1,0.5]];portConstraint=eastwest;" vertex="1" parent="iQT0GIpQPG-4RbalyCgK-33">
          <mxGeometry y="104" width="160" height="26" as="geometry" />
        </mxCell>
        <mxCell id="iQT0GIpQPG-4RbalyCgK-38" value="+ field: type" style="text;html=1;strokeColor=none;fillColor=none;align=left;verticalAlign=top;spacingLeft=4;spacingRight=4;whiteSpace=wrap;overflow=hidden;rotatable=0;points=[[0,0.5],[1,0.5]];portConstraint=eastwest;" vertex="1" parent="iQT0GIpQPG-4RbalyCgK-33">
          <mxGeometry y="130" width="160" height="26" as="geometry" />
        </mxCell>
        <mxCell id="iQT0GIpQPG-4RbalyCgK-39" value="" style="line;html=1;strokeWidth=1;fillColor=none;align=left;verticalAlign=middle;spacingTop=-1;spacingLeft=3;spacingRight=3;rotatable=0;labelPosition=right;points=[];portConstraint=eastwest;" vertex="1" parent="iQT0GIpQPG-4RbalyCgK-33">
          <mxGeometry y="156" width="160" height="8" as="geometry" />
        </mxCell>
        <mxCell id="iQT0GIpQPG-4RbalyCgK-40" value="+ method(type): type" style="text;html=1;strokeColor=none;fillColor=none;align=left;verticalAlign=top;spacingLeft=4;spacingRight=4;whiteSpace=wrap;overflow=hidden;rotatable=0;points=[[0,0.5],[1,0.5]];portConstraint=eastwest;" vertex="1" parent="iQT0GIpQPG-4RbalyCgK-33">
          <mxGeometry y="164" width="160" height="26" as="geometry" />
        </mxCell>
        <mxCell id="iQT0GIpQPG-4RbalyCgK-41" value="+ method(type): type" style="text;html=1;strokeColor=none;fillColor=none;align=left;verticalAlign=top;spacingLeft=4;spacingRight=4;whiteSpace=wrap;overflow=hidden;rotatable=0;points=[[0,0.5],[1,0.5]];portConstraint=eastwest;" vertex="1" parent="iQT0GIpQPG-4RbalyCgK-33">
          <mxGeometry y="190" width="160" height="26" as="geometry" />
        </mxCell>
        <mxCell id="iQT0GIpQPG-4RbalyCgK-42" style="edgeStyle=elbowEdgeStyle;html=1;labelBackgroundColor=none;startFill=0;startSize=8;endArrow=open;endFill=0;endSize=16;fontFamily=Verdana;fontSize=12;elbow=vertical;dashed=1;rounded=0;" edge="1" parent="1" source="iQT0GIpQPG-4RbalyCgK-43" target="iQT0GIpQPG-4RbalyCgK-54">
          <mxGeometry relative="1" as="geometry" />
        </mxCell>
        <mxCell id="iQT0GIpQPG-4RbalyCgK-43" value="Classname" style="swimlane;html=1;fontStyle=1;align=center;verticalAlign=top;childLayout=stackLayout;horizontal=1;startSize=26;horizontalStack=0;resizeParent=1;resizeLast=0;collapsible=1;marginBottom=0;swimlaneFillColor=#ffffff;rounded=0;shadow=0;comic=0;labelBackgroundColor=none;strokeWidth=1;fillColor=none;fontFamily=Verdana;fontSize=12" vertex="1" parent="1">
          <mxGeometry x="360" y="20" width="160" height="277" as="geometry" />
        </mxCell>
        <mxCell id="iQT0GIpQPG-4RbalyCgK-44" value="+ field: type" style="text;html=1;strokeColor=none;fillColor=none;align=left;verticalAlign=top;spacingLeft=4;spacingRight=4;whiteSpace=wrap;overflow=hidden;rotatable=0;points=[[0,0.5],[1,0.5]];portConstraint=eastwest;" vertex="1" parent="iQT0GIpQPG-4RbalyCgK-43">
          <mxGeometry y="26" width="160" height="26" as="geometry" />
        </mxCell>
        <mxCell id="iQT0GIpQPG-4RbalyCgK-45" value="+ field: type" style="text;html=1;strokeColor=none;fillColor=none;align=left;verticalAlign=top;spacingLeft=4;spacingRight=4;whiteSpace=wrap;overflow=hidden;rotatable=0;points=[[0,0.5],[1,0.5]];portConstraint=eastwest;" vertex="1" parent="iQT0GIpQPG-4RbalyCgK-43">
          <mxGeometry y="52" width="160" height="26" as="geometry" />
        </mxCell>
        <mxCell id="iQT0GIpQPG-4RbalyCgK-46" value="+ field: type" style="text;html=1;strokeColor=none;fillColor=none;align=left;verticalAlign=top;spacingLeft=4;spacingRight=4;whiteSpace=wrap;overflow=hidden;rotatable=0;points=[[0,0.5],[1,0.5]];portConstraint=eastwest;" vertex="1" parent="iQT0GIpQPG-4RbalyCgK-43">
          <mxGeometry y="78" width="160" height="26" as="geometry" />
        </mxCell>
        <mxCell id="iQT0GIpQPG-4RbalyCgK-47" value="+ field: type" style="text;html=1;strokeColor=none;fillColor=none;align=left;verticalAlign=top;spacingLeft=4;spacingRight=4;whiteSpace=wrap;overflow=hidden;rotatable=0;points=[[0,0.5],[1,0.5]];portConstraint=eastwest;" vertex="1" parent="iQT0GIpQPG-4RbalyCgK-43">
          <mxGeometry y="104" width="160" height="26" as="geometry" />
        </mxCell>
        <mxCell id="iQT0GIpQPG-4RbalyCgK-48" value="+ field: type" style="text;html=1;strokeColor=none;fillColor=none;align=left;verticalAlign=top;spacingLeft=4;spacingRight=4;whiteSpace=wrap;overflow=hidden;rotatable=0;points=[[0,0.5],[1,0.5]];portConstraint=eastwest;" vertex="1" parent="iQT0GIpQPG-4RbalyCgK-43">
          <mxGeometry y="130" width="160" height="26" as="geometry" />
        </mxCell>
        <mxCell id="iQT0GIpQPG-4RbalyCgK-49" value="+ field: type" style="text;html=1;strokeColor=none;fillColor=none;align=left;verticalAlign=top;spacingLeft=4;spacingRight=4;whiteSpace=wrap;overflow=hidden;rotatable=0;points=[[0,0.5],[1,0.5]];portConstraint=eastwest;" vertex="1" parent="iQT0GIpQPG-4RbalyCgK-43">
          <mxGeometry y="156" width="160" height="26" as="geometry" />
        </mxCell>
        <mxCell id="iQT0GIpQPG-4RbalyCgK-50" value="" style="line;html=1;strokeWidth=1;fillColor=none;align=left;verticalAlign=middle;spacingTop=-1;spacingLeft=3;spacingRight=3;rotatable=0;labelPosition=right;points=[];portConstraint=eastwest;" vertex="1" parent="iQT0GIpQPG-4RbalyCgK-43">
          <mxGeometry y="182" width="160" height="8" as="geometry" />
        </mxCell>
        <mxCell id="iQT0GIpQPG-4RbalyCgK-51" value="+ method(type): type" style="text;html=1;strokeColor=none;fillColor=none;align=left;verticalAlign=top;spacingLeft=4;spacingRight=4;whiteSpace=wrap;overflow=hidden;rotatable=0;points=[[0,0.5],[1,0.5]];portConstraint=eastwest;" vertex="1" parent="iQT0GIpQPG-4RbalyCgK-43">
          <mxGeometry y="190" width="160" height="26" as="geometry" />
        </mxCell>
        <mxCell id="iQT0GIpQPG-4RbalyCgK-52" value="+ method(type): type" style="text;html=1;strokeColor=none;fillColor=none;align=left;verticalAlign=top;spacingLeft=4;spacingRight=4;whiteSpace=wrap;overflow=hidden;rotatable=0;points=[[0,0.5],[1,0.5]];portConstraint=eastwest;" vertex="1" parent="iQT0GIpQPG-4RbalyCgK-43">
          <mxGeometry y="216" width="160" height="26" as="geometry" />
        </mxCell>
        <mxCell id="iQT0GIpQPG-4RbalyCgK-53" value="+ method(type): type" style="text;html=1;strokeColor=none;fillColor=none;align=left;verticalAlign=top;spacingLeft=4;spacingRight=4;whiteSpace=wrap;overflow=hidden;rotatable=0;points=[[0,0.5],[1,0.5]];portConstraint=eastwest;" vertex="1" parent="iQT0GIpQPG-4RbalyCgK-43">
          <mxGeometry y="242" width="160" height="26" as="geometry" />
        </mxCell>
        <mxCell id="iQT0GIpQPG-4RbalyCgK-54" value="Classname" style="swimlane;html=1;fontStyle=1;align=center;verticalAlign=top;childLayout=stackLayout;horizontal=1;startSize=26;horizontalStack=0;resizeParent=1;resizeLast=0;collapsible=1;marginBottom=0;swimlaneFillColor=#ffffff;rounded=0;shadow=0;comic=0;labelBackgroundColor=none;strokeWidth=1;fillColor=none;fontFamily=Verdana;fontSize=12" vertex="1" parent="1">
          <mxGeometry x="670" y="20" width="160" height="197" as="geometry" />
        </mxCell>
        <mxCell id="iQT0GIpQPG-4RbalyCgK-55" value="+ field: type" style="text;html=1;strokeColor=none;fillColor=none;align=left;verticalAlign=top;spacingLeft=4;spacingRight=4;whiteSpace=wrap;overflow=hidden;rotatable=0;points=[[0,0.5],[1,0.5]];portConstraint=eastwest;" vertex="1" parent="iQT0GIpQPG-4RbalyCgK-54">
          <mxGeometry y="26" width="160" height="26" as="geometry" />
        </mxCell>
        <mxCell id="iQT0GIpQPG-4RbalyCgK-56" value="+ field: type" style="text;html=1;strokeColor=none;fillColor=none;align=left;verticalAlign=top;spacingLeft=4;spacingRight=4;whiteSpace=wrap;overflow=hidden;rotatable=0;points=[[0,0.5],[1,0.5]];portConstraint=eastwest;" vertex="1" parent="iQT0GIpQPG-4RbalyCgK-54">
          <mxGeometry y="52" width="160" height="26" as="geometry" />
        </mxCell>
        <mxCell id="iQT0GIpQPG-4RbalyCgK-57" value="+ field: type" style="text;html=1;strokeColor=none;fillColor=none;align=left;verticalAlign=top;spacingLeft=4;spacingRight=4;whiteSpace=wrap;overflow=hidden;rotatable=0;points=[[0,0.5],[1,0.5]];portConstraint=eastwest;" vertex="1" parent="iQT0GIpQPG-4RbalyCgK-54">
          <mxGeometry y="78" width="160" height="26" as="geometry" />
        </mxCell>
        <mxCell id="iQT0GIpQPG-4RbalyCgK-58" value="+ field: type" style="text;html=1;strokeColor=none;fillColor=none;align=left;verticalAlign=top;spacingLeft=4;spacingRight=4;whiteSpace=wrap;overflow=hidden;rotatable=0;points=[[0,0.5],[1,0.5]];portConstraint=eastwest;" vertex="1" parent="iQT0GIpQPG-4RbalyCgK-54">
          <mxGeometry y="104" width="160" height="26" as="geometry" />
        </mxCell>
        <mxCell id="iQT0GIpQPG-4RbalyCgK-59" value="" style="line;html=1;strokeWidth=1;fillColor=none;align=left;verticalAlign=middle;spacingTop=-1;spacingLeft=3;spacingRight=3;rotatable=0;labelPosition=right;points=[];portConstraint=eastwest;" vertex="1" parent="iQT0GIpQPG-4RbalyCgK-54">
          <mxGeometry y="130" width="160" height="8" as="geometry" />
        </mxCell>
        <mxCell id="iQT0GIpQPG-4RbalyCgK-60" value="+ method(type): type" style="text;html=1;strokeColor=none;fillColor=none;align=left;verticalAlign=top;spacingLeft=4;spacingRight=4;whiteSpace=wrap;overflow=hidden;rotatable=0;points=[[0,0.5],[1,0.5]];portConstraint=eastwest;" vertex="1" parent="iQT0GIpQPG-4RbalyCgK-54">
          <mxGeometry y="138" width="160" height="26" as="geometry" />
        </mxCell>
        <mxCell id="iQT0GIpQPG-4RbalyCgK-61" value="+ method(type): type" style="text;html=1;strokeColor=none;fillColor=none;align=left;verticalAlign=top;spacingLeft=4;spacingRight=4;whiteSpace=wrap;overflow=hidden;rotatable=0;points=[[0,0.5],[1,0.5]];portConstraint=eastwest;" vertex="1" parent="iQT0GIpQPG-4RbalyCgK-54">
          <mxGeometry y="164" width="160" height="26" as="geometry" />
        </mxCell>
        <mxCell id="iQT0GIpQPG-4RbalyCgK-62" style="edgeStyle=elbowEdgeStyle;html=1;labelBackgroundColor=none;startFill=0;startSize=8;endArrow=open;endFill=0;endSize=16;fontFamily=Verdana;fontSize=12;elbow=vertical;dashed=1;rounded=0;" edge="1" parent="1" source="iQT0GIpQPG-4RbalyCgK-76" target="iQT0GIpQPG-4RbalyCgK-63">
          <mxGeometry relative="1" as="geometry" />
        </mxCell>
        <mxCell id="iQT0GIpQPG-4RbalyCgK-63" value="Classname" style="swimlane;html=1;fontStyle=1;align=center;verticalAlign=top;childLayout=stackLayout;horizontal=1;startSize=26;horizontalStack=0;resizeParent=1;resizeLast=0;collapsible=1;marginBottom=0;swimlaneFillColor=#ffffff;rounded=0;shadow=0;comic=0;labelBackgroundColor=none;strokeWidth=1;fillColor=none;fontFamily=Verdana;fontSize=12" vertex="1" parent="1">
          <mxGeometry x="20" y="419.00000000000006" width="160" height="300" as="geometry" />
        </mxCell>
        <mxCell id="iQT0GIpQPG-4RbalyCgK-64" value="+ field: type" style="text;html=1;strokeColor=none;fillColor=none;align=left;verticalAlign=top;spacingLeft=4;spacingRight=4;whiteSpace=wrap;overflow=hidden;rotatable=0;points=[[0,0.5],[1,0.5]];portConstraint=eastwest;" vertex="1" parent="iQT0GIpQPG-4RbalyCgK-63">
          <mxGeometry y="26" width="160" height="26" as="geometry" />
        </mxCell>
        <mxCell id="iQT0GIpQPG-4RbalyCgK-65" value="+ field: type" style="text;html=1;strokeColor=none;fillColor=none;align=left;verticalAlign=top;spacingLeft=4;spacingRight=4;whiteSpace=wrap;overflow=hidden;rotatable=0;points=[[0,0.5],[1,0.5]];portConstraint=eastwest;" vertex="1" parent="iQT0GIpQPG-4RbalyCgK-63">
          <mxGeometry y="52" width="160" height="26" as="geometry" />
        </mxCell>
        <mxCell id="iQT0GIpQPG-4RbalyCgK-66" value="+ field: type" style="text;html=1;strokeColor=none;fillColor=none;align=left;verticalAlign=top;spacingLeft=4;spacingRight=4;whiteSpace=wrap;overflow=hidden;rotatable=0;points=[[0,0.5],[1,0.5]];portConstraint=eastwest;" vertex="1" parent="iQT0GIpQPG-4RbalyCgK-63">
          <mxGeometry y="78" width="160" height="26" as="geometry" />
        </mxCell>
        <mxCell id="iQT0GIpQPG-4RbalyCgK-67" value="+ field: type" style="text;html=1;strokeColor=none;fillColor=none;align=left;verticalAlign=top;spacingLeft=4;spacingRight=4;whiteSpace=wrap;overflow=hidden;rotatable=0;points=[[0,0.5],[1,0.5]];portConstraint=eastwest;" vertex="1" parent="iQT0GIpQPG-4RbalyCgK-63">
          <mxGeometry y="104" width="160" height="26" as="geometry" />
        </mxCell>
        <mxCell id="iQT0GIpQPG-4RbalyCgK-68" value="+ field: type" style="text;html=1;strokeColor=none;fillColor=none;align=left;verticalAlign=top;spacingLeft=4;spacingRight=4;whiteSpace=wrap;overflow=hidden;rotatable=0;points=[[0,0.5],[1,0.5]];portConstraint=eastwest;" vertex="1" parent="iQT0GIpQPG-4RbalyCgK-63">
          <mxGeometry y="130" width="160" height="26" as="geometry" />
        </mxCell>
        <mxCell id="iQT0GIpQPG-4RbalyCgK-69" value="+ field: type" style="text;html=1;strokeColor=none;fillColor=none;align=left;verticalAlign=top;spacingLeft=4;spacingRight=4;whiteSpace=wrap;overflow=hidden;rotatable=0;points=[[0,0.5],[1,0.5]];portConstraint=eastwest;" vertex="1" parent="iQT0GIpQPG-4RbalyCgK-63">
          <mxGeometry y="156" width="160" height="26" as="geometry" />
        </mxCell>
        <mxCell id="iQT0GIpQPG-4RbalyCgK-70" value="+ field: type" style="text;html=1;strokeColor=none;fillColor=none;align=left;verticalAlign=top;spacingLeft=4;spacingRight=4;whiteSpace=wrap;overflow=hidden;rotatable=0;points=[[0,0.5],[1,0.5]];portConstraint=eastwest;" vertex="1" parent="iQT0GIpQPG-4RbalyCgK-63">
          <mxGeometry y="182" width="160" height="26" as="geometry" />
        </mxCell>
        <mxCell id="iQT0GIpQPG-4RbalyCgK-71" value="" style="line;html=1;strokeWidth=1;fillColor=none;align=left;verticalAlign=middle;spacingTop=-1;spacingLeft=3;spacingRight=3;rotatable=0;labelPosition=right;points=[];portConstraint=eastwest;" vertex="1" parent="iQT0GIpQPG-4RbalyCgK-63">
          <mxGeometry y="208" width="160" height="8" as="geometry" />
        </mxCell>
        <mxCell id="iQT0GIpQPG-4RbalyCgK-72" value="+ method(type): type" style="text;html=1;strokeColor=none;fillColor=none;align=left;verticalAlign=top;spacingLeft=4;spacingRight=4;whiteSpace=wrap;overflow=hidden;rotatable=0;points=[[0,0.5],[1,0.5]];portConstraint=eastwest;" vertex="1" parent="iQT0GIpQPG-4RbalyCgK-63">
          <mxGeometry y="216" width="160" height="26" as="geometry" />
        </mxCell>
        <mxCell id="iQT0GIpQPG-4RbalyCgK-73" value="+ method(type): type" style="text;html=1;strokeColor=none;fillColor=none;align=left;verticalAlign=top;spacingLeft=4;spacingRight=4;whiteSpace=wrap;overflow=hidden;rotatable=0;points=[[0,0.5],[1,0.5]];portConstraint=eastwest;" vertex="1" parent="iQT0GIpQPG-4RbalyCgK-63">
          <mxGeometry y="242" width="160" height="26" as="geometry" />
        </mxCell>
        <mxCell id="iQT0GIpQPG-4RbalyCgK-74" value="+ method(type): type" style="text;html=1;strokeColor=none;fillColor=none;align=left;verticalAlign=top;spacingLeft=4;spacingRight=4;whiteSpace=wrap;overflow=hidden;rotatable=0;points=[[0,0.5],[1,0.5]];portConstraint=eastwest;" vertex="1" parent="iQT0GIpQPG-4RbalyCgK-63">
          <mxGeometry y="268" width="160" height="26" as="geometry" />
        </mxCell>
        <mxCell id="iQT0GIpQPG-4RbalyCgK-75" style="edgeStyle=elbowEdgeStyle;html=1;labelBackgroundColor=none;startFill=0;startSize=8;endArrow=diamondThin;endFill=0;endSize=16;fontFamily=Verdana;fontSize=12;elbow=vertical;rounded=0;" edge="1" parent="1" source="iQT0GIpQPG-4RbalyCgK-89" target="iQT0GIpQPG-4RbalyCgK-76">
          <mxGeometry relative="1" as="geometry" />
        </mxCell>
        <mxCell id="iQT0GIpQPG-4RbalyCgK-76" value="Classname" style="swimlane;html=1;fontStyle=1;align=center;verticalAlign=top;childLayout=stackLayout;horizontal=1;startSize=26;horizontalStack=0;resizeParent=1;resizeLast=0;collapsible=1;marginBottom=0;swimlaneFillColor=#ffffff;rounded=0;shadow=0;comic=0;labelBackgroundColor=none;strokeWidth=1;fillColor=none;fontFamily=Verdana;fontSize=12" vertex="1" parent="1">
          <mxGeometry x="290" y="418.9999999999999" width="160" height="304" as="geometry" />
        </mxCell>
        <mxCell id="iQT0GIpQPG-4RbalyCgK-77" value="+ field: type" style="text;html=1;strokeColor=none;fillColor=none;align=left;verticalAlign=top;spacingLeft=4;spacingRight=4;whiteSpace=wrap;overflow=hidden;rotatable=0;points=[[0,0.5],[1,0.5]];portConstraint=eastwest;" vertex="1" parent="iQT0GIpQPG-4RbalyCgK-76">
          <mxGeometry y="26" width="160" height="26" as="geometry" />
        </mxCell>
        <mxCell id="iQT0GIpQPG-4RbalyCgK-78" value="+ field: type" style="text;html=1;strokeColor=none;fillColor=none;align=left;verticalAlign=top;spacingLeft=4;spacingRight=4;whiteSpace=wrap;overflow=hidden;rotatable=0;points=[[0,0.5],[1,0.5]];portConstraint=eastwest;" vertex="1" parent="iQT0GIpQPG-4RbalyCgK-76">
          <mxGeometry y="52" width="160" height="26" as="geometry" />
        </mxCell>
        <mxCell id="iQT0GIpQPG-4RbalyCgK-79" value="+ field: type" style="text;html=1;strokeColor=none;fillColor=none;align=left;verticalAlign=top;spacingLeft=4;spacingRight=4;whiteSpace=wrap;overflow=hidden;rotatable=0;points=[[0,0.5],[1,0.5]];portConstraint=eastwest;" vertex="1" parent="iQT0GIpQPG-4RbalyCgK-76">
          <mxGeometry y="78" width="160" height="26" as="geometry" />
        </mxCell>
        <mxCell id="iQT0GIpQPG-4RbalyCgK-80" value="+ field: type" style="text;html=1;strokeColor=none;fillColor=none;align=left;verticalAlign=top;spacingLeft=4;spacingRight=4;whiteSpace=wrap;overflow=hidden;rotatable=0;points=[[0,0.5],[1,0.5]];portConstraint=eastwest;" vertex="1" parent="iQT0GIpQPG-4RbalyCgK-76">
          <mxGeometry y="104" width="160" height="26" as="geometry" />
        </mxCell>
        <mxCell id="iQT0GIpQPG-4RbalyCgK-81" value="+ field: type" style="text;html=1;strokeColor=none;fillColor=none;align=left;verticalAlign=top;spacingLeft=4;spacingRight=4;whiteSpace=wrap;overflow=hidden;rotatable=0;points=[[0,0.5],[1,0.5]];portConstraint=eastwest;" vertex="1" parent="iQT0GIpQPG-4RbalyCgK-76">
          <mxGeometry y="130" width="160" height="26" as="geometry" />
        </mxCell>
        <mxCell id="iQT0GIpQPG-4RbalyCgK-82" value="+ field: type" style="text;html=1;strokeColor=none;fillColor=none;align=left;verticalAlign=top;spacingLeft=4;spacingRight=4;whiteSpace=wrap;overflow=hidden;rotatable=0;points=[[0,0.5],[1,0.5]];portConstraint=eastwest;" vertex="1" parent="iQT0GIpQPG-4RbalyCgK-76">
          <mxGeometry y="156" width="160" height="26" as="geometry" />
        </mxCell>
        <mxCell id="iQT0GIpQPG-4RbalyCgK-83" value="" style="line;html=1;strokeWidth=1;fillColor=none;align=left;verticalAlign=middle;spacingTop=-1;spacingLeft=3;spacingRight=3;rotatable=0;labelPosition=right;points=[];portConstraint=eastwest;" vertex="1" parent="iQT0GIpQPG-4RbalyCgK-76">
          <mxGeometry y="182" width="160" height="8" as="geometry" />
        </mxCell>
        <mxCell id="iQT0GIpQPG-4RbalyCgK-84" value="+ method(type): type" style="text;html=1;strokeColor=none;fillColor=none;align=left;verticalAlign=top;spacingLeft=4;spacingRight=4;whiteSpace=wrap;overflow=hidden;rotatable=0;points=[[0,0.5],[1,0.5]];portConstraint=eastwest;" vertex="1" parent="iQT0GIpQPG-4RbalyCgK-76">
          <mxGeometry y="190" width="160" height="26" as="geometry" />
        </mxCell>
        <mxCell id="iQT0GIpQPG-4RbalyCgK-85" value="+ method(type): type" style="text;html=1;strokeColor=none;fillColor=none;align=left;verticalAlign=top;spacingLeft=4;spacingRight=4;whiteSpace=wrap;overflow=hidden;rotatable=0;points=[[0,0.5],[1,0.5]];portConstraint=eastwest;" vertex="1" parent="iQT0GIpQPG-4RbalyCgK-76">
          <mxGeometry y="216" width="160" height="26" as="geometry" />
        </mxCell>
        <mxCell id="iQT0GIpQPG-4RbalyCgK-86" value="+ method(type): type" style="text;html=1;strokeColor=none;fillColor=none;align=left;verticalAlign=top;spacingLeft=4;spacingRight=4;whiteSpace=wrap;overflow=hidden;rotatable=0;points=[[0,0.5],[1,0.5]];portConstraint=eastwest;" vertex="1" parent="iQT0GIpQPG-4RbalyCgK-76">
          <mxGeometry y="242" width="160" height="26" as="geometry" />
        </mxCell>
        <mxCell id="iQT0GIpQPG-4RbalyCgK-87" value="+ method(type): type" style="text;html=1;strokeColor=none;fillColor=none;align=left;verticalAlign=top;spacingLeft=4;spacingRight=4;whiteSpace=wrap;overflow=hidden;rotatable=0;points=[[0,0.5],[1,0.5]];portConstraint=eastwest;" vertex="1" parent="iQT0GIpQPG-4RbalyCgK-76">
          <mxGeometry y="268" width="160" height="26" as="geometry" />
        </mxCell>
        <mxCell id="iQT0GIpQPG-4RbalyCgK-88" style="edgeStyle=orthogonalEdgeStyle;html=1;labelBackgroundColor=none;startFill=0;startSize=8;endArrow=block;endFill=0;endSize=16;fontFamily=Verdana;fontSize=12;rounded=0;" edge="1" parent="1" source="iQT0GIpQPG-4RbalyCgK-89" target="iQT0GIpQPG-4RbalyCgK-54">
          <mxGeometry relative="1" as="geometry">
            <Array as="points">
              <mxPoint x="560" y="367" />
              <mxPoint x="720" y="367" />
            </Array>
          </mxGeometry>
        </mxCell>
        <mxCell id="iQT0GIpQPG-4RbalyCgK-89" value="Classname" style="swimlane;html=1;fontStyle=1;align=center;verticalAlign=top;childLayout=stackLayout;horizontal=1;startSize=26;horizontalStack=0;resizeParent=1;resizeLast=0;collapsible=1;marginBottom=0;swimlaneFillColor=#ffffff;rounded=0;shadow=0;comic=0;labelBackgroundColor=none;strokeWidth=1;fillColor=none;fontFamily=Verdana;fontSize=12" vertex="1" parent="1">
          <mxGeometry x="480" y="419.00000000000006" width="160" height="270" as="geometry" />
        </mxCell>
        <mxCell id="iQT0GIpQPG-4RbalyCgK-90" value="+ field: type" style="text;html=1;strokeColor=none;fillColor=none;align=left;verticalAlign=top;spacingLeft=4;spacingRight=4;whiteSpace=wrap;overflow=hidden;rotatable=0;points=[[0,0.5],[1,0.5]];portConstraint=eastwest;" vertex="1" parent="iQT0GIpQPG-4RbalyCgK-89">
          <mxGeometry y="26" width="160" height="26" as="geometry" />
        </mxCell>
        <mxCell id="iQT0GIpQPG-4RbalyCgK-91" value="+ field: type" style="text;html=1;strokeColor=none;fillColor=none;align=left;verticalAlign=top;spacingLeft=4;spacingRight=4;whiteSpace=wrap;overflow=hidden;rotatable=0;points=[[0,0.5],[1,0.5]];portConstraint=eastwest;" vertex="1" parent="iQT0GIpQPG-4RbalyCgK-89">
          <mxGeometry y="52" width="160" height="26" as="geometry" />
        </mxCell>
        <mxCell id="iQT0GIpQPG-4RbalyCgK-92" value="+ field: type" style="text;html=1;strokeColor=none;fillColor=none;align=left;verticalAlign=top;spacingLeft=4;spacingRight=4;whiteSpace=wrap;overflow=hidden;rotatable=0;points=[[0,0.5],[1,0.5]];portConstraint=eastwest;" vertex="1" parent="iQT0GIpQPG-4RbalyCgK-89">
          <mxGeometry y="78" width="160" height="26" as="geometry" />
        </mxCell>
        <mxCell id="iQT0GIpQPG-4RbalyCgK-93" value="+ field: type" style="text;html=1;strokeColor=none;fillColor=none;align=left;verticalAlign=top;spacingLeft=4;spacingRight=4;whiteSpace=wrap;overflow=hidden;rotatable=0;points=[[0,0.5],[1,0.5]];portConstraint=eastwest;" vertex="1" parent="iQT0GIpQPG-4RbalyCgK-89">
          <mxGeometry y="104" width="160" height="26" as="geometry" />
        </mxCell>
        <mxCell id="iQT0GIpQPG-4RbalyCgK-94" value="+ field: type" style="text;html=1;strokeColor=none;fillColor=none;align=left;verticalAlign=top;spacingLeft=4;spacingRight=4;whiteSpace=wrap;overflow=hidden;rotatable=0;points=[[0,0.5],[1,0.5]];portConstraint=eastwest;" vertex="1" parent="iQT0GIpQPG-4RbalyCgK-89">
          <mxGeometry y="130" width="160" height="26" as="geometry" />
        </mxCell>
        <mxCell id="iQT0GIpQPG-4RbalyCgK-95" value="+ field: type" style="text;html=1;strokeColor=none;fillColor=none;align=left;verticalAlign=top;spacingLeft=4;spacingRight=4;whiteSpace=wrap;overflow=hidden;rotatable=0;points=[[0,0.5],[1,0.5]];portConstraint=eastwest;" vertex="1" parent="iQT0GIpQPG-4RbalyCgK-89">
          <mxGeometry y="156" width="160" height="26" as="geometry" />
        </mxCell>
        <mxCell id="iQT0GIpQPG-4RbalyCgK-96" value="+ field: type" style="text;html=1;strokeColor=none;fillColor=none;align=left;verticalAlign=top;spacingLeft=4;spacingRight=4;whiteSpace=wrap;overflow=hidden;rotatable=0;points=[[0,0.5],[1,0.5]];portConstraint=eastwest;" vertex="1" parent="iQT0GIpQPG-4RbalyCgK-89">
          <mxGeometry y="182" width="160" height="26" as="geometry" />
        </mxCell>
        <mxCell id="iQT0GIpQPG-4RbalyCgK-97" value="" style="line;html=1;strokeWidth=1;fillColor=none;align=left;verticalAlign=middle;spacingTop=-1;spacingLeft=3;spacingRight=3;rotatable=0;labelPosition=right;points=[];portConstraint=eastwest;" vertex="1" parent="iQT0GIpQPG-4RbalyCgK-89">
          <mxGeometry y="208" width="160" height="8" as="geometry" />
        </mxCell>
        <mxCell id="iQT0GIpQPG-4RbalyCgK-98" value="+ method(type): type" style="text;html=1;strokeColor=none;fillColor=none;align=left;verticalAlign=top;spacingLeft=4;spacingRight=4;whiteSpace=wrap;overflow=hidden;rotatable=0;points=[[0,0.5],[1,0.5]];portConstraint=eastwest;" vertex="1" parent="iQT0GIpQPG-4RbalyCgK-89">
          <mxGeometry y="216" width="160" height="26" as="geometry" />
        </mxCell>
        <mxCell id="iQT0GIpQPG-4RbalyCgK-99" value="+ method(type): type" style="text;html=1;strokeColor=none;fillColor=none;align=left;verticalAlign=top;spacingLeft=4;spacingRight=4;whiteSpace=wrap;overflow=hidden;rotatable=0;points=[[0,0.5],[1,0.5]];portConstraint=eastwest;" vertex="1" parent="iQT0GIpQPG-4RbalyCgK-89">
          <mxGeometry y="242" width="160" height="26" as="geometry" />
        </mxCell>
        <mxCell id="iQT0GIpQPG-4RbalyCgK-100" style="edgeStyle=orthogonalEdgeStyle;html=1;labelBackgroundColor=none;startFill=0;startSize=8;endArrow=block;endFill=0;endSize=16;fontFamily=Verdana;fontSize=12;rounded=0;" edge="1" parent="1" source="iQT0GIpQPG-4RbalyCgK-101" target="iQT0GIpQPG-4RbalyCgK-54">
          <mxGeometry relative="1" as="geometry" />
        </mxCell>
        <mxCell id="iQT0GIpQPG-4RbalyCgK-101" value="Classname" style="swimlane;html=1;fontStyle=1;align=center;verticalAlign=top;childLayout=stackLayout;horizontal=1;startSize=26;horizontalStack=0;resizeParent=1;resizeLast=0;collapsible=1;marginBottom=0;swimlaneFillColor=#ffffff;rounded=0;shadow=0;comic=0;labelBackgroundColor=none;strokeWidth=1;fillColor=none;fontFamily=Verdana;fontSize=12" vertex="1" parent="1">
          <mxGeometry x="670" y="419" width="160" height="168" as="geometry" />
        </mxCell>
        <mxCell id="iQT0GIpQPG-4RbalyCgK-102" value="+ field: type" style="text;html=1;strokeColor=none;fillColor=none;align=left;verticalAlign=top;spacingLeft=4;spacingRight=4;whiteSpace=wrap;overflow=hidden;rotatable=0;points=[[0,0.5],[1,0.5]];portConstraint=eastwest;" vertex="1" parent="iQT0GIpQPG-4RbalyCgK-101">
          <mxGeometry y="26" width="160" height="26" as="geometry" />
        </mxCell>
        <mxCell id="iQT0GIpQPG-4RbalyCgK-103" value="+ field: type" style="text;html=1;strokeColor=none;fillColor=none;align=left;verticalAlign=top;spacingLeft=4;spacingRight=4;whiteSpace=wrap;overflow=hidden;rotatable=0;points=[[0,0.5],[1,0.5]];portConstraint=eastwest;" vertex="1" parent="iQT0GIpQPG-4RbalyCgK-101">
          <mxGeometry y="52" width="160" height="26" as="geometry" />
        </mxCell>
        <mxCell id="iQT0GIpQPG-4RbalyCgK-104" value="+ field: type" style="text;html=1;strokeColor=none;fillColor=none;align=left;verticalAlign=top;spacingLeft=4;spacingRight=4;whiteSpace=wrap;overflow=hidden;rotatable=0;points=[[0,0.5],[1,0.5]];portConstraint=eastwest;" vertex="1" parent="iQT0GIpQPG-4RbalyCgK-101">
          <mxGeometry y="78" width="160" height="26" as="geometry" />
        </mxCell>
        <mxCell id="iQT0GIpQPG-4RbalyCgK-105" value="+ field: type" style="text;html=1;strokeColor=none;fillColor=none;align=left;verticalAlign=top;spacingLeft=4;spacingRight=4;whiteSpace=wrap;overflow=hidden;rotatable=0;points=[[0,0.5],[1,0.5]];portConstraint=eastwest;" vertex="1" parent="iQT0GIpQPG-4RbalyCgK-101">
          <mxGeometry y="104" width="160" height="26" as="geometry" />
        </mxCell>
        <mxCell id="iQT0GIpQPG-4RbalyCgK-106" value="" style="line;html=1;strokeWidth=1;fillColor=none;align=left;verticalAlign=middle;spacingTop=-1;spacingLeft=3;spacingRight=3;rotatable=0;labelPosition=right;points=[];portConstraint=eastwest;" vertex="1" parent="iQT0GIpQPG-4RbalyCgK-101">
          <mxGeometry y="130" width="160" height="8" as="geometry" />
        </mxCell>
        <mxCell id="iQT0GIpQPG-4RbalyCgK-107" value="+ method(type): type" style="text;html=1;strokeColor=none;fillColor=none;align=left;verticalAlign=top;spacingLeft=4;spacingRight=4;whiteSpace=wrap;overflow=hidden;rotatable=0;points=[[0,0.5],[1,0.5]];portConstraint=eastwest;" vertex="1" parent="iQT0GIpQPG-4RbalyCgK-101">
          <mxGeometry y="138" width="160" height="26" as="geometry" />
        </mxCell>
        <mxCell id="iQT0GIpQPG-4RbalyCgK-108" style="edgeStyle=orthogonalEdgeStyle;html=1;labelBackgroundColor=none;startFill=0;startSize=8;endArrow=block;endFill=0;endSize=16;fontFamily=Verdana;fontSize=12;rounded=0;" edge="1" parent="1" source="iQT0GIpQPG-4RbalyCgK-109" target="iQT0GIpQPG-4RbalyCgK-54">
          <mxGeometry relative="1" as="geometry">
            <Array as="points">
              <mxPoint x="930" y="367" />
              <mxPoint x="780" y="367" />
            </Array>
          </mxGeometry>
        </mxCell>
        <mxCell id="iQT0GIpQPG-4RbalyCgK-109" value="Classname" style="swimlane;html=1;fontStyle=1;align=center;verticalAlign=top;childLayout=stackLayout;horizontal=1;startSize=26;horizontalStack=0;resizeParent=1;resizeLast=0;collapsible=1;marginBottom=0;swimlaneFillColor=#ffffff;rounded=0;shadow=0;comic=0;labelBackgroundColor=none;strokeWidth=1;fillColor=none;fontFamily=Verdana;fontSize=12" vertex="1" parent="1">
          <mxGeometry x="850" y="418.99999999999983" width="160" height="147" as="geometry" />
        </mxCell>
        <mxCell id="iQT0GIpQPG-4RbalyCgK-110" value="+ field: type" style="text;html=1;strokeColor=none;fillColor=none;align=left;verticalAlign=top;spacingLeft=4;spacingRight=4;whiteSpace=wrap;overflow=hidden;rotatable=0;points=[[0,0.5],[1,0.5]];portConstraint=eastwest;" vertex="1" parent="iQT0GIpQPG-4RbalyCgK-109">
          <mxGeometry y="26" width="160" height="26" as="geometry" />
        </mxCell>
        <mxCell id="iQT0GIpQPG-4RbalyCgK-111" value="+ field: type" style="text;html=1;strokeColor=none;fillColor=none;align=left;verticalAlign=top;spacingLeft=4;spacingRight=4;whiteSpace=wrap;overflow=hidden;rotatable=0;points=[[0,0.5],[1,0.5]];portConstraint=eastwest;" vertex="1" parent="iQT0GIpQPG-4RbalyCgK-109">
          <mxGeometry y="52" width="160" height="26" as="geometry" />
        </mxCell>
        <mxCell id="iQT0GIpQPG-4RbalyCgK-112" value="" style="line;html=1;strokeWidth=1;fillColor=none;align=left;verticalAlign=middle;spacingTop=-1;spacingLeft=3;spacingRight=3;rotatable=0;labelPosition=right;points=[];portConstraint=eastwest;" vertex="1" parent="iQT0GIpQPG-4RbalyCgK-109">
          <mxGeometry y="78" width="160" height="8" as="geometry" />
        </mxCell>
        <mxCell id="iQT0GIpQPG-4RbalyCgK-113" value="+ method(type): type" style="text;html=1;strokeColor=none;fillColor=none;align=left;verticalAlign=top;spacingLeft=4;spacingRight=4;whiteSpace=wrap;overflow=hidden;rotatable=0;points=[[0,0.5],[1,0.5]];portConstraint=eastwest;" vertex="1" parent="iQT0GIpQPG-4RbalyCgK-109">
          <mxGeometry y="86" width="160" height="26" as="geometry" />
        </mxCell>
        <mxCell id="iQT0GIpQPG-4RbalyCgK-114" value="+ method(type): type" style="text;html=1;strokeColor=none;fillColor=none;align=left;verticalAlign=top;spacingLeft=4;spacingRight=4;whiteSpace=wrap;overflow=hidden;rotatable=0;points=[[0,0.5],[1,0.5]];portConstraint=eastwest;" vertex="1" parent="iQT0GIpQPG-4RbalyCgK-109">
          <mxGeometry y="112" width="160" height="26" as="geometry" />
        </mxCell>
        <mxCell id="iQT0GIpQPG-4RbalyCgK-115" style="edgeStyle=elbowEdgeStyle;html=1;labelBackgroundColor=none;startFill=0;startSize=8;endArrow=diamondThin;endFill=0;endSize=16;fontFamily=Verdana;fontSize=12;elbow=vertical;rounded=0;" edge="1" parent="1" source="iQT0GIpQPG-4RbalyCgK-33" target="iQT0GIpQPG-4RbalyCgK-43">
          <mxGeometry relative="1" as="geometry">
            <mxPoint x="180" y="196.88235294117635" as="sourcePoint" />
          </mxGeometry>
        </mxCell>
        <mxCell id="wbuH8kGnE4sP_8_vR7ug-1" value="User&lt;br/&gt;&lt;br&gt;Administrator&lt;br/&gt;&lt;br&gt;Customer&lt;br/&gt;&lt;br&gt;Vendor&lt;br/&gt;&lt;br&gt;DeliveryRunner&lt;br/&gt;&lt;br&gt;&lt;br&gt;Order&lt;br&gt;&lt;br&gt;associates with Customer&lt;br/&gt;&lt;br&gt;associates with Vendor&lt;br/&gt;&lt;br&gt;&lt;br&gt;Menu&lt;br/&gt;&lt;br&gt;&lt;br&gt;associates with Vendor&lt;br/&gt;&lt;br&gt;Notification&lt;br/&gt;&lt;br&gt;sends to User&lt;br/&gt;&lt;br&gt;&lt;br&gt;Payment&lt;br/&gt;&lt;br&gt;&lt;br&gt;associates with Customer&lt;br/&gt;&lt;br&gt;associates with Order&lt;br/&gt;&lt;br&gt;&lt;br&gt;Task&lt;br/&gt;&lt;br&gt;&lt;br&gt;associates with DeliveryRunner&lt;br/&gt;&lt;br&gt;associates with Order" style="text;whiteSpace=wrap;html=1;" vertex="1" parent="1">
          <mxGeometry x="204" y="820" width="340" height="501" as="geometry" />
        </mxCell>
      </root>
    </mxGraphModel>
  </diagram>
</mxfile>
